# xmcd
#
# Track frame offsets:
#	150
#	16889
#	34546
#	49887
#	63591
#	83269
#	98301
#	119147
#	135132
#	151833
#
# Disc length: 2211 seconds
#
# Revision: 1
# Processed by: cddbd v1.5.2PL0 Copyright (c) Steve Scherf et al.
# Submitted via: audiograbber 1.83.01
#
DISCID=6908a10a
DTITLE=Jamie Spurvey - Take It All
DYEAR=2012
DGENRE=Country
TTITLE0=You Two Stepped Your Way
TTITLE1=I Wouldn't Take a Million Dollars for a Single Maple Leaf
TTITLE2=Crowbar Hotel
TTITLE3=Better Off Alone
TTITLE4=Take It All
TTITLE5=Been There
TTITLE6=All the Wrong Places
TTITLE7=I Wanna Thank You for Leaving Me
TTITLE8=Cheaters Paradise
TTITLE9=Tryin to Get a Handle
EXTD=
EXTT0=
EXTT1=
EXTT2=
EXTT3=
EXTT4=
EXTT5=
EXTT6=
EXTT7=
EXTT8=
EXTT9=
PLAYORDER=
